<?xml version="1.0" encoding="UTF-8"?>
<svg version="1.1" xmlns="http://www.w3.org/2000/svg" width="512" height="512">
<path d="M0 0 C168.96 0 337.92 0 512 0 C512 168.96 512 337.92 512 512 C343.04 512 174.08 512 0 512 C0 343.04 0 174.08 0 0 Z " fill="#C12007" transform="translate(0,0)"/>
<path d="M0 0 C1.02061523 0.20520264 2.04123047 0.41040527 3.09277344 0.62182617 C8.54958867 1.77803073 13.31232464 3.2428742 18.375 5.5625 C20.67683057 6.32467867 22.98936686 7.05545504 25.3125 7.75 C26.45589844 8.09417969 27.59929687 8.43835938 28.77734375 8.79296875 C29.63457031 9.04691406 30.49179687 9.30085938 31.375 9.5625 C31.375 10.2225 31.375 10.8825 31.375 11.5625 C32.03242188 11.64242187 32.68984375 11.72234375 33.3671875 11.8046875 C37.43558448 12.82971219 40.82626764 14.69450427 44.5 16.6875 C45.25700195 17.09492432 46.01400391 17.50234863 46.79394531 17.92211914 C63.32831619 26.9096452 77.27196598 38.02334052 90.77734375 51.02783203 C92.09053529 52.28925044 93.41831742 53.53546214 94.75 54.77734375 C100.69163613 60.44346047 105.57450842 66.93132802 110.375 73.5625 C110.99012451 74.41110596 110.99012451 74.41110596 111.61767578 75.27685547 C117.12779197 82.97876857 121.86984724 91.01409739 126.3125 99.375 C126.77325928 100.23416016 127.23401855 101.09332031 127.70874023 101.97851562 C130.32715777 107.02433857 132.18571309 111.9143945 133.69335938 117.39135742 C134.53095718 120.05925043 135.92057255 122.18468946 137.375 124.5625 C138.10480729 127.07103912 138.74404795 129.51973033 139.3125 132.0625 C140.49892648 137.13687032 141.82394052 142.05905144 143.5 147 C153.86747492 180.51061776 147.43639063 221.72046865 131.91796875 252.60546875 C127.44816861 261.07220213 122.37247905 269.09041142 116.375 276.5625 C115.9507373 277.09214355 115.52647461 277.62178711 115.08935547 278.16748047 C109.67188408 284.88206579 104.17471437 291.2025828 97.375 296.5625 C96.44429688 297.32949219 95.51359375 298.09648437 94.5546875 298.88671875 C72.60163399 316.68238904 44.3612598 328.76108766 16.375 332.5625 C16.01148438 334.13837891 16.01148438 334.13837891 15.640625 335.74609375 C10.55802379 357.26893532 10.55802379 357.26893532 2.375 364.5625 C-3.86213215 368.35369797 -10.50142964 368.73703218 -17.54199219 367.12304688 C-21.90930201 365.95870914 -26.20980413 364.58764383 -30.515625 363.21630859 C-33.61109564 362.256856 -36.73879021 361.44000189 -39.875 360.625 C-52.61827772 357.26577951 -65.3211957 353.75865834 -77.7890625 349.48046875 C-82.21717598 348.04712623 -86.72023583 346.92083695 -91.22265625 345.74609375 C-97.46940199 344.0908001 -103.6596903 342.23856364 -109.85961914 340.41748047 C-119.14015453 337.69457442 -128.43886355 335.03778349 -137.74487305 332.40332031 C-144.46173653 330.49420813 -151.14751896 328.50390038 -157.81591797 326.43164062 C-159.53535894 325.89963907 -161.26005739 325.38386146 -162.99267578 324.89648438 C-168.44708082 323.19286742 -171.60293707 320.27845807 -174.625 315.5625 C-180.0457591 304.29253691 -175.43506076 292.54297019 -171.625 281.5625 C-171.26943632 280.234922 -170.92205771 278.90438137 -170.625 277.5625 C-171.45451172 277.22025391 -171.45451172 277.22025391 -172.30078125 276.87109375 C-181.17305322 271.87578096 -188.51136889 261.46162781 -194.625 253.5625 C-195.29144531 252.71300781 -195.95789063 251.86351562 -196.64453125 250.98828125 C-209.08652632 234.57073745 -218.32544955 215.43705821 -223.625 195.5625 C-223.94597656 194.41523438 -224.26695312 193.26796875 -224.59765625 192.0859375 C-229.0234859 173.18867416 -228.45843391 150.29205639 -223.625 131.5625 C-223.45871094 130.88687012 -223.29242188 130.21124023 -223.12109375 129.51513672 C-220.23804944 117.96427309 -215.79204048 107.2658478 -210.625 96.5625 C-210.15449219 95.57894531 -209.68398437 94.59539062 -209.19921875 93.58203125 C-192.83471445 61.67366152 -165.21268887 37.26769913 -134.625 19.5625 C-133.92358887 19.15080566 -133.22217773 18.73911133 -132.49951172 18.31494141 C-121.77777777 12.07854641 -110.82308904 7.86771522 -98.96533203 4.27636719 C-96.98767854 3.67312717 -95.02160084 3.03213138 -93.05859375 2.3828125 C-62.71264893 -7.22363383 -30.84139668 -6.21787401 0 0 Z " fill="#FDBC20" transform="translate(294.625,72.4375)"/>
<path d="M0 0 C0.99683807 0.00021149 1.99367615 0.00042297 3.02072144 0.00064087 C18.44037075 0.03328569 33.11877344 0.85859228 48.1875 4.375 C49.11820312 4.58350586 50.04890625 4.79201172 51.0078125 5.00683594 C58.9126024 6.79521299 66.66184985 8.69450234 74.22436523 11.6315918 C76.17582222 12.37057781 78.13810433 13.02712683 80.125 13.6640625 C89.98415933 16.87494599 98.59337141 21.1252167 107.49658203 26.40429688 C109.62955353 27.62876911 111.82731693 28.6635187 114.0625 29.6875 C131.84520885 38.38327472 146.96419977 51.8448931 161.1875 65.375 C161.71021484 65.8690332 162.23292969 66.36306641 162.77148438 66.87207031 C170.41551547 74.1372567 177.03795036 81.81163206 183.1875 90.375 C183.58598145 90.92865234 183.98446289 91.48230469 184.39501953 92.05273438 C199.09229965 112.60386418 209.92557764 134.52725714 218.1875 158.375 C218.579375 159.50292969 218.97125 160.63085938 219.375 161.79296875 C220.10544944 164.11425278 220.67228049 166.36136564 221.125 168.75 C221.28871094 169.61367187 221.45242188 170.47734375 221.62109375 171.3671875 C221.80800781 172.35976562 221.99492187 173.35234375 222.1875 174.375 C222.54521484 176.14230469 222.54521484 176.14230469 222.91015625 177.9453125 C226.22036069 194.48019879 227.50738499 210.70806829 227.39331055 227.56738281 C227.37465551 230.42782203 227.37280438 233.28794284 227.37304688 236.1484375 C227.36814396 237.97396115 227.36232107 239.79948262 227.35546875 241.625 C227.35435593 242.47690918 227.3532431 243.32881836 227.35209656 244.20654297 C227.30370656 250.14258689 227.30370656 250.14258689 226.1875 252.375 C225.91043605 254.09631009 225.67513204 255.82442927 225.4609375 257.5546875 C223.55780723 271.93486177 220.72763829 284.96679177 215.1875 298.375 C214.87796387 299.1371582 214.56842773 299.89931641 214.24951172 300.68457031 C190.26628254 359.1055759 144.4985034 403.18742549 86.765625 427.8359375 C77.43006744 431.55594394 67.81259337 434.50678316 58.1875 437.375 C57.17647217 437.6831665 57.17647217 437.6831665 56.14501953 437.99755859 C23.3690368 447.8295209 -16.7608481 445.88483406 -49.68408203 437.875 C-51.19573258 437.5198887 -52.71316844 437.18901805 -54.23388672 436.875 C-55.03197754 436.71 -55.83006836 436.545 -56.65234375 436.375 C-57.37671631 436.230625 -58.10108887 436.08625 -58.84741211 435.9375 C-60.8125 435.375 -60.8125 435.375 -63.8125 433.375 C-65.45358744 432.92914334 -67.09643916 432.48864804 -68.74804688 432.08349609 C-88.80857331 427.02091764 -108.1043704 416.43493519 -124.8125 404.375 C-125.69615234 403.73933105 -125.69615234 403.73933105 -126.59765625 403.09082031 C-133.5475463 398.0338813 -140.03255091 392.53040125 -146.32421875 386.67578125 C-148.48429288 384.67847565 -150.68797945 382.76956662 -152.9375 380.875 C-174.42168542 362.08721032 -193.20084381 333.7445667 -203.8125 307.375 C-204.21726562 306.38886719 -204.62203125 305.40273438 -205.0390625 304.38671875 C-208.1879777 296.47579375 -210.78894415 288.44036759 -213.22607422 280.2890625 C-213.75645946 278.55791332 -214.33080249 276.84038194 -214.91015625 275.125 C-218.4203712 264.23399088 -219.35026383 253.01770258 -220.48706055 241.67480469 C-220.69159142 239.35224835 -220.69159142 239.35224835 -221.8125 237.375 C-221.94905394 234.43617093 -222.02485919 231.52238091 -222.05078125 228.58203125 C-222.06039383 227.69195877 -222.07000641 226.80188629 -222.07991028 225.88484192 C-222.10476713 222.98568954 -222.11719688 220.08674683 -222.125 217.1875 C-222.12992462 215.71697174 -222.12992462 215.71697174 -222.13494873 214.21673584 C-222.1501346 200.26893996 -221.47806588 187.1554952 -218.28662109 173.52880859 C-217.57789489 170.3092501 -217.17447423 167.0813144 -216.75 163.8125 C-216.09328092 159.42675865 -214.97324412 156.28096052 -212.8125 152.375 C-212.14208206 150.42494617 -211.49911856 148.46536159 -210.875 146.5 C-209.46919787 142.15918349 -207.87097093 138.17892774 -205.73828125 134.15234375 C-204.88690595 132.51784687 -204.15558229 130.82228541 -203.4375 129.125 C-195.19870471 109.71124302 -182.89828957 92.73713239 -169.12792969 76.89013672 C-167.94532175 75.5279866 -166.77278877 74.15710504 -165.6015625 72.78515625 C-149.01982208 53.7685506 -128.28371441 37.81978075 -105.8125 26.375 C-105.20792969 26.06320801 -104.60335937 25.75141602 -103.98046875 25.43017578 C-85.3521602 15.83586203 -66.56616828 8.49426819 -46 4.3125 C-44.8099939 4.06886719 -44.8099939 4.06886719 -43.59594727 3.8203125 C-41.00622426 3.30783639 -38.41198162 2.83541802 -35.8125 2.375 C-34.33317993 2.10139648 -34.33317993 2.10139648 -32.82397461 1.82226562 C-21.90751582 0.0113748 -11.04096533 -0.02157531 0 0 Z M-52.8125 45.375 C-54.42522076 45.862535 -56.03855304 46.34804966 -57.65234375 46.83203125 C-70.19610959 50.68646865 -81.49563591 55.75032321 -92.8125 62.375 C-93.61993652 62.84599121 -94.42737305 63.31698242 -95.25927734 63.80224609 C-105.70435695 69.97105521 -115.23995062 76.673745 -124.17724609 84.87939453 C-125.82582784 86.38718966 -127.49769379 87.86501348 -129.17578125 89.33984375 C-147.71831609 105.7952931 -162.45147235 126.38792622 -171.8125 149.375 C-172.09561035 150.06996582 -172.3787207 150.76493164 -172.67041016 151.48095703 C-179.84001643 169.3534373 -183.20776976 186.42146056 -183.125 205.75 C-183.12317719 206.42854034 -183.12135437 207.10708069 -183.11947632 207.80618286 C-183.07352495 217.98298976 -182.55117567 227.51576758 -179.8125 237.375 C-179.50699219 238.59445312 -179.20148438 239.81390625 -178.88671875 241.0703125 C-174.5494641 257.23775341 -166.65487048 273.86332474 -156.8125 287.375 C-156.1009375 288.36757813 -155.389375 289.36015625 -154.65625 290.3828125 C-148.07320483 299.34605996 -140.52594891 307.38296729 -132.8125 315.375 C-131.67941406 316.57962891 -131.67941406 316.57962891 -130.5234375 317.80859375 C-128.95325627 319.60008899 -128.95325627 319.60008899 -126.8125 319.375 C-127.62433668 322.14602926 -128.43694141 324.91682927 -129.25 327.6875 C-129.48009766 328.47318359 -129.71019531 329.25886719 -129.94726562 330.06835938 C-130.16962891 330.82568359 -130.39199219 331.58300781 -130.62109375 332.36328125 C-130.82532959 333.05977783 -131.02956543 333.75627441 -131.23999023 334.47387695 C-131.73472612 336.11673766 -132.26993619 337.74730856 -132.8125 339.375 C-133.4395722 346.88958652 -133.81224954 354.27904869 -128.8125 360.375 C-123.61288732 365.74425746 -117.82543848 367.29292979 -110.75 369.3125 C-109.59258301 369.65531006 -108.43516602 369.99812012 -107.24267578 370.35131836 C-103.77035556 371.37515869 -100.29262839 372.3780644 -96.8125 373.375 C-94.96742622 373.90877919 -93.12237231 374.44262704 -91.27734375 374.9765625 C-87.89084318 375.95161508 -84.50122636 376.91483373 -81.109375 377.87109375 C-75.20638902 379.53869844 -69.32287026 381.27146501 -63.4375 383 C-56.91456688 384.9135656 -50.38998471 386.78293031 -43.8125 388.5 C-38.22656473 389.96150856 -32.72395568 391.62438437 -27.22387695 393.375 C-15.4536214 397.09924341 -3.54420424 400.43118964 8.390625 403.5859375 C10.69140513 404.23504028 12.95883412 404.93375806 15.234375 405.6640625 C29.27583035 410.29048354 29.27583035 410.29048354 43.5 407.8125 C51.55774538 403.06683401 54.68486826 396.10640406 57.1875 387.375 C58.27927838 383.05942965 59.27326243 378.73148055 60.1875 374.375 C61.01507813 374.23964844 61.84265625 374.10429687 62.6953125 373.96484375 C79.96930849 370.84955506 96.58631362 365.42904206 112.1875 357.375 C113.62416016 356.65376953 113.62416016 356.65376953 115.08984375 355.91796875 C125.68629518 350.39930036 135.2673642 343.59786739 143.96875 335.41796875 C146.1875 333.375 146.1875 333.375 148.69921875 331.4296875 C163.46014814 319.24091378 174.57475115 299.11431944 181.1875 281.375 C181.59613281 280.34117187 182.00476563 279.30734375 182.42578125 278.2421875 C193.3346667 248.58893233 195.70193169 213.50718207 185.484375 183.3828125 C183.66418559 177.95177537 182.44730772 172.38167559 181.1796875 166.80078125 C180.22794932 163.51466161 179.00603448 161.23955168 177.1875 158.375 C176.62730518 156.84719594 176.10835583 155.30382451 175.625 153.75 C170.52602179 139.38367735 162.41285131 126.41486527 153.1875 114.375 C152.57132812 113.54742187 151.95515625 112.71984375 151.3203125 111.8671875 C132.8223745 87.40217273 106.89075427 65.10442414 78.1875 53.375 C77.1975 53.375 76.2075 53.375 75.1875 53.375 C75.1875 52.715 75.1875 52.055 75.1875 51.375 C74.04152344 51.04886719 72.89554688 50.72273438 71.71484375 50.38671875 C70.18482777 49.9455485 68.65488365 49.50412894 67.125 49.0625 C66.37283203 48.84916016 65.62066406 48.63582031 64.84570312 48.41601562 C61.40123894 47.4169719 58.22106163 46.39064313 54.9609375 44.87109375 C49.57295234 42.46791451 43.64563708 41.76779337 37.875 40.75 C36.70259766 40.5334375 35.53019531 40.316875 34.32226562 40.09375 C5.2857583 34.8409145 -24.7038901 36.0877425 -52.8125 45.375 Z " fill="#340322" transform="translate(250.8125,30.625)"/>
<path d="M0 0 C58.41 0 116.82 0 177 0 C174.45849987 2.54150013 172.38775619 2.89843626 168.9375 3.875 C163.37290978 5.52784858 158.23434681 7.51753405 153 10 C151.41861169 10.71266512 149.83527123 11.42101442 148.25 12.125 C147.55390625 12.43695313 146.8578125 12.74890625 146.140625 13.0703125 C143.00882928 14.43047196 139.84884991 15.69081626 136.640625 16.859375 C131.43162737 18.79998196 127.07767772 21.11322309 122.5390625 24.3046875 C119.49476662 26.33734044 116.32296562 28.10064766 113.125 29.875 C106.72055498 33.46509735 100.82955048 37.52826408 95 42 C94.23171875 42.57492188 93.4634375 43.14984375 92.671875 43.7421875 C81.76751069 52.0157786 72.11454791 61.6728449 62.44042969 71.31933594 C60.37881399 73.37120404 58.30674404 75.41212578 56.234375 77.453125 C49.05982849 84.57000438 42.60392551 91.55890473 37 100 C36.01098782 101.39808499 35.01902139 102.79408712 34.0234375 104.1875 C28.24716224 112.46076687 23.07766773 120.78482101 18.59375 129.83984375 C16.46795911 134.05495363 14.21841363 138.1999246 11.9609375 142.34570312 C8.40008028 148.95775289 5.74384097 155.48194296 3.84375 162.765625 C3 165 3 165 0 168 C0 112.56 0 57.12 0 0 Z " fill="#950D0B" transform="translate(0,0)"/>
<path d="M0 0 C0.33 0 0.66 0 1 0 C1 57.42 1 114.84 1 174 C-54.11 174 -109.22 174 -166 174 C-163.51490367 172.34326911 -161.7350746 171.44850079 -159 170.4375 C-153.00189779 168.09762898 -147.25107024 165.29251569 -141.46069336 162.48779297 C-136.77387039 160.24027849 -132.07614984 158.21568271 -127.21411133 156.38061523 C-119.50690579 153.4500756 -114.08154239 150.14320231 -107.92578125 144.56640625 C-103.7828588 140.93236079 -99.29163223 137.96689619 -94.71484375 134.91015625 C-92.51834656 133.36470715 -90.84452348 131.911691 -89 130 C-87.59386629 128.9235992 -86.17618353 127.86219102 -84.75 126.8125 C-80.8312494 123.81468755 -77.77655476 120.57687369 -74.63671875 116.79296875 C-72.36074351 114.29971664 -69.85926537 112.77002142 -67 111 C-66.67 110.34 -66.34 109.68 -66 109 C-65.34 109 -64.68 109 -64 109 C-63.7215625 107.948125 -63.7215625 107.948125 -63.4375 106.875 C-61.72368603 103.44737205 -59.6736649 101.90749857 -56.734375 99.5390625 C-54.28567645 97.36611829 -52.75367935 94.74743098 -51 92 C-49.89591797 90.92878906 -49.89591797 90.92878906 -48.76953125 89.8359375 C-44.75653571 85.72672063 -41.54687488 81.09716958 -38.19726562 76.44335938 C-37.68486328 75.74404297 -37.17246094 75.04472656 -36.64453125 74.32421875 C-36.18409424 73.68572998 -35.72365723 73.04724121 -35.24926758 72.3894043 C-34.83700928 71.93090088 -34.42475098 71.47239746 -34 71 C-33.34 71 -32.68 71 -32 71 C-31.6596875 69.9790625 -31.6596875 69.9790625 -31.3125 68.9375 C-30.21405805 66.47908231 -29.21366247 64.85576681 -27.61328125 62.75390625 C-25.14264153 59.3431313 -23.48309938 55.90658698 -21.875 52 C-18.44179401 43.82645451 -14.62180269 35.85956344 -10.73193359 27.89453125 C-8.51442176 23.31948732 -6.46786921 18.8810214 -5 14 C-4.31928998 12.10171811 -3.63197074 10.20579096 -2.9375 8.3125 C-1.92479352 5.54953101 -0.93062413 2.79187238 0 0 Z " fill="#9A0E0B" transform="translate(511,338)"/>
<path d="M0 0 C0 0.66 0 1.32 0 2 C0.88042969 2.25136719 1.76085937 2.50273437 2.66796875 2.76171875 C14.53069853 7.1702596 22.41089302 18.46875911 27.66796875 29.5 C33.60592212 44.93535218 32.48268637 60.9555839 26 76 C23.96776344 79.94115779 21.68010792 83.47147217 19 87 C18.41605469 87.78890625 17.83210938 88.5778125 17.23046875 89.390625 C9.07995561 99.48010232 -4.11188751 107.02565085 -17 109 C-32.09782458 110.12580057 -44.4136994 107.92016109 -57 99 C-59.625 96.6875 -59.625 96.6875 -62 94 C-62.61488281 93.37609375 -63.22976562 92.7521875 -63.86328125 92.109375 C-76.10473411 79.29158255 -79.4647812 64.2790133 -79.21875 47.1015625 C-79.04511171 42.30263418 -78.01197089 38.35207438 -76 34 C-75.70996094 33.2678125 -75.41992188 32.535625 -75.12109375 31.78125 C-68.60671195 15.86326267 -57.06397401 5.26354918 -41.71875 -2.09375 C-28.72876261 -7.03360436 -12.64637433 -4.69004611 0 0 Z " fill="#340322" transform="translate(188,211)"/>
<path d="M0 0 C0.70769531 0.51304687 1.41539062 1.02609375 2.14453125 1.5546875 C12.36265027 9.65662803 19.07100995 21.16135762 21 34 C22.40491541 49.14684428 21.59411186 65.45236531 11.85546875 77.828125 C10.93701172 78.90320313 10.93701172 78.90320313 10 80 C9.41863281 80.71671875 8.83726562 81.4334375 8.23828125 82.171875 C-1.63196945 93.97181516 -13.60247624 100.85649321 -29 103 C-37.26936147 103.64297411 -44.37505496 103.33142608 -52 100 C-52.73605469 99.7215625 -53.47210938 99.443125 -54.23046875 99.15625 C-65.69604856 94.57791176 -76.54189195 85.16593345 -82 74 C-87.93173445 59.22093282 -91.34114875 42.54983784 -85.26513672 27.13574219 C-78.81668562 12.04921313 -68.64694529 -0.70148583 -53.15625 -7.19140625 C-50.76830579 -7.93584066 -48.45656301 -8.53602857 -46 -9 C-44.6078125 -9.27070313 -44.6078125 -9.27070313 -43.1875 -9.546875 C-27.36923156 -11.79555042 -12.93250183 -9.70445192 0 0 Z " fill="#330322" transform="translate(361,264)"/>
<path d="M0 0 C0.66 0 1.32 0 2 0 C1.99777939 0.69713104 1.99555878 1.39426208 1.99327087 2.11251831 C1.97325202 8.67529238 1.95801771 15.23805796 1.94818783 21.80085564 C1.94296435 25.17503026 1.93587639 28.54917971 1.92456055 31.92333984 C1.91247564 35.80046259 1.90676737 39.6775494 1.90234375 43.5546875 C1.89718246 44.76929657 1.89202118 45.98390564 1.88670349 47.23532104 C1.88662796 48.35633209 1.88655243 49.47734314 1.88647461 50.63232422 C1.88314369 52.11791336 1.88314369 52.11791336 1.87974548 53.6335144 C1.84229846 56.01896773 1.84229846 56.01896773 3 58 C3.1961303 59.55551618 3.34611982 61.11696993 3.47265625 62.6796875 C4.59804383 74.8063129 6.54684002 86.28652772 9.9375 98 C10.27338135 99.16128418 10.6092627 100.32256836 10.95532227 101.51904297 C12.6664688 107.20741547 14.55763713 112.6692789 17.09692383 118.04272461 C18.08448308 120.18310378 18.92192299 122.35601518 19.75 124.5625 C29.32774493 148.50686233 44.23575672 169.5927454 61 189 C61.65226562 189.77730469 62.30453125 190.55460938 62.9765625 191.35546875 C66.31712283 195.29855023 69.83238786 198.75297355 73.77734375 202.08984375 C76.35500202 204.30508961 78.82586922 206.6206534 81.3125 208.9375 C86.61324926 213.74650171 92.07125017 217.99486391 98 222 C98.6384082 222.43538086 99.27681641 222.87076172 99.93457031 223.31933594 C117.62981793 235.28312981 136.63780433 245.0752609 157.234375 250.9140625 C161 252 161 252 163.41015625 253.0234375 C167.39234915 254.52501853 171.51482182 255.20579508 175.6875 256 C177.39973958 256.33333333 179.11197917 256.66666667 180.82421875 257 C182.11078369 257.24556641 182.11078369 257.24556641 183.42333984 257.49609375 C185.1143033 257.82678814 186.80238172 258.1726704 188.48681641 258.53515625 C200.17919535 261.03125612 211.8428663 261.20617648 223.75 261.1875 C224.52078888 261.18656342 225.29157776 261.18562683 226.08572388 261.18466187 C254.50208857 261.1100628 279.24943743 256.5859143 306 247 C307.04929687 246.62488281 308.09859375 246.24976563 309.1796875 245.86328125 C323.96752842 240.09816646 339.03003066 232.14373027 352 223 C352.54994629 222.61553711 353.09989258 222.23107422 353.66650391 221.83496094 C373.65570317 207.78733819 391.40716718 191.6435116 406 172 C406.71800781 171.05382812 407.43601562 170.10765625 408.17578125 169.1328125 C421.82445074 150.84624561 432.32700573 130.44772119 440 109 C441.49807907 112.93495435 440.56394217 116.42352245 439.625 120.375 C439.45363525 121.10307861 439.28227051 121.83115723 439.10571289 122.58129883 C435.99517461 134.81761691 430.81086552 146.80526547 425 158 C424.34 158 423.68 158 423 158 C422.79503906 158.62648438 422.59007812 159.25296875 422.37890625 159.8984375 C421.97478516 161.12433594 421.97478516 161.12433594 421.5625 162.375 C421.29566406 163.18710937 421.02882813 163.99921875 420.75390625 164.8359375 C420 167 420 167 419 169 C418.34 169 417.68 169 417 169 C416.814375 169.78375 416.62875 170.5675 416.4375 171.375 C414.40511769 176.500138 411.22800727 180.56067154 408 185 C406.83174673 186.70724872 405.66504766 188.41556213 404.5 190.125 C401.2733132 194.71327771 397.79871475 198.87799038 394 203 C393.50048828 203.54849609 393.00097656 204.09699219 392.48632812 204.66210938 C372.82154882 226.23653199 372.82154882 226.23653199 362 233 C361.34 233 360.68 233 360 233 C360 233.66 360 234.32 360 235 C354.58823529 239 354.58823529 239 352 239 C352 239.66 352 240.32 352 241 C349.92111288 242.47686988 347.86716626 243.81395738 345.6875 245.125 C345.09259766 245.49753906 344.49769531 245.87007812 343.88476562 246.25390625 C339.38338484 249 339.38338484 249 336 249 C335.67 249.99 335.34 250.98 335 252 C332.46498065 253.30000992 330.00374658 254.42694658 327.375 255.5 C326.32505859 255.94279297 326.32505859 255.94279297 325.25390625 256.39453125 C323.85608603 256.98322362 322.45601888 257.5666104 321.05371094 258.14453125 C319.05713235 258.97620165 317.07997068 259.84492741 315.1015625 260.71875 C312 262 312 262 310 262 C310 262.66 310 263.32 310 264 C306.81369323 265.12839909 303.62574686 266.25209545 300.4375 267.375 C299.54224609 267.69210937 298.64699219 268.00921875 297.72460938 268.3359375 C283.58121875 273.3094375 283.58121875 273.3094375 276 273 C276 273.66 276 274.32 276 275 C272.09090675 275.70081038 268.18056844 276.39419036 264.26904297 277.08129883 C262.29979246 277.42871558 260.33152132 277.78166929 258.36328125 278.13476562 C219.69866616 284.90597994 174.90463065 281.92832891 138.9375 264.8984375 C136.98532932 263.99319706 135.02200646 263.23455703 133 262.5 C128.56932244 260.88316 124.28959187 258.95613333 120 257 C120 256.34 120 255.68 120 255 C118.86046875 254.77441406 117.7209375 254.54882812 116.546875 254.31640625 C111.54574282 253.05952541 107.57359283 250.68373012 103.25 247.9375 C102.46431641 247.44725342 101.67863281 246.95700684 100.86914062 246.4519043 C94.30224161 242.30322147 88.08565528 237.83115617 82 233 C81.11828125 232.31035156 80.2365625 231.62070312 79.328125 230.91015625 C67.31889498 221.43014285 67.31889498 221.43014285 64 218 C64 217.34 64 216.68 64 216 C63.01 215.67 62.02 215.34 61 215 C56 209.53488372 56 209.53488372 56 207 C55.13375 206.62875 55.13375 206.62875 54.25 206.25 C51.65091342 204.80606301 49.92163162 203.26478013 48 201 C48 200.01 48 199.02 48 198 C47.41863281 197.76152344 46.83726563 197.52304687 46.23828125 197.27734375 C37.3832929 192.22397343 29.85956757 178.49487485 27 169 C26.34 169 25.68 169 25 169 C23.5393715 166.35261084 23 165.10551666 23 162 C22.34 162 21.68 162 21 162 C10.62222568 141.97224332 2.80492941 121.7755676 -2.25 99.75 C-2.40106201 99.10297119 -2.55212402 98.45594238 -2.70776367 97.78930664 C-5.84194305 83.36288932 -6.36956973 69.01214992 -6.3125 54.3125 C-6.31076279 52.92559967 -6.31076279 52.92559967 -6.30899048 51.51068115 C-6.27590663 38.16185524 -5.92418029 25.08030981 -3 12 C-2.71382812 10.71222656 -2.42765625 9.42445313 -2.1328125 8.09765625 C-1.4783126 5.37680668 -0.78403968 2.68575296 0 0 Z " fill="#FA7141" transform="translate(28,212)"/>
<path d="M0 0 C20.19613447 -0.59226201 39.20854955 -0.86151477 55.484375 13.13671875 C62.38070575 20.34766312 64.12136811 26.71963182 64.375 36.5625 C64.03604707 49.20418905 58.10434101 58.58041134 49.50390625 67.625 C35.39743438 80.65313002 15.33385521 91.16969487 -4.15234375 92.21875 C-8.27991692 91.90167991 -11.72474869 90.51390112 -15.5234375 88.9375 C-18.84356417 87.68066971 -21.49661095 87.49951585 -25 88 C-25.9590625 88.7734375 -25.9590625 88.7734375 -26.9375 89.5625 C-29.64377159 91.44868929 -31.56463147 91.12404632 -34.734375 90.56640625 C-46.46201028 87.63449743 -56.10002202 81.66702438 -62.66015625 71.40234375 C-66.95648117 63.69902064 -66.65398229 55.57787606 -65.4375 47.0625 C-61.01260408 32.28274561 -48.20905698 19.47644652 -35 12 C-31.06175616 10.15473813 -27.05712911 8.56176419 -23 7 C-21.7678413 6.44408465 -20.53809425 5.88274177 -19.3125 5.3125 C-12.92100063 2.78001912 -6.85505682 1.70829545 0 2 C0 1.34 0 0.68 0 0 Z " fill="#FEFEFD" transform="translate(205,88)"/>
<path d="M0 0 C0.33 0 0.66 0 1 0 C1 29.7 1 59.4 1 90 C-28.37 90 -57.74 90 -88 90 C-81.26170799 82.13865932 -81.26170799 82.13865932 -77.50390625 78.44140625 C-76.69759766 77.64283203 -75.89128906 76.84425781 -75.06054688 76.02148438 C-73.39911908 74.38603669 -71.73766089 72.75061987 -70.07617188 71.11523438 C-65.73564234 66.81627416 -61.59814126 62.44594731 -57.61987305 57.8112793 C-55.13926735 55.03756209 -52.40697434 52.59005673 -49.625 50.125 C-44.85127349 45.8169361 -40.4543181 41.36561705 -36.29296875 36.44921875 C-34.42603788 34.45506943 -32.5807152 32.74063947 -30.51171875 30.97265625 C-25.17149862 26.36953168 -20.22464202 21.3746065 -15.25244141 16.3828125 C-13.61084038 14.73579365 -11.96388532 13.09426198 -10.31640625 11.453125 C-9.26530375 10.40136262 -8.21451099 9.34929058 -7.1640625 8.296875 C-6.6745108 7.80934753 -6.18495911 7.32182007 -5.68057251 6.81951904 C-3.50643412 4.63030288 -1.72009992 2.58014988 0 0 Z " fill="#A21609" transform="translate(511,422)"/>
<path d="M0 0 C21.78 0 43.56 0 66 0 C65.34 1.32 64.68 2.64 64 4 C63.34 4 62.68 4 62 4 C61.7525 4.5775 61.505 5.155 61.25 5.75 C59.83316683 8.3002997 58.12372463 10.01785701 56 12 C56.99 12 57.98 12 59 12 C59.33 11.01 59.66 10.02 60 9 C61.62890625 7.61328125 61.62890625 7.61328125 63.5625 6.3125 C64.20316406 5.87550781 64.84382813 5.43851562 65.50390625 4.98828125 C65.99761719 4.66214844 66.49132812 4.33601562 67 4 C69.875 10.625 69.875 10.625 71 14 C62.738041 19.74031891 62.738041 19.74031891 58 19 C59.86566488 22.62793998 59.86566488 22.62793998 63 25 C62.57741214 29.93019167 60.49417121 31.66030542 57 35 C55.10224021 36.90245384 53.2047667 38.80518984 51.30761719 40.70825195 C45.78611267 46.24602048 40.26212376 51.78130365 34.73667526 57.31513691 C31.3986531 60.65840558 28.06158418 64.00261499 24.7265625 67.34887695 C21.49400443 70.5922564 18.25904836 73.83322572 15.02237701 77.07250023 C13.78865974 78.30807024 12.55582532 79.54452241 11.32387543 80.78185463 C9.60981292 82.50311937 7.89270445 84.22128695 6.17480469 85.9387207 C5.66261383 86.45450684 5.15042297 86.97029297 4.62271118 87.50170898 C1.11405525 91 1.11405525 91 0 91 C0 60.97 0 30.94 0 0 Z " fill="#B31F07" transform="translate(0,0)"/>
<path d="M0 0 C27.72 0 55.44 0 84 0 C84 30.03 84 60.06 84 91 C81 89 81 89 79.72265625 86.3828125 C77.50328216 82.02458584 74.58352465 78.59581958 71.4375 74.875 C70.5101001 73.76209595 70.5101001 73.76209595 69.56396484 72.62670898 C66.67828005 69.16754378 63.77058916 65.72733617 60.85546875 62.29296875 C60.39019775 61.74205566 59.92492676 61.19114258 59.44555664 60.62353516 C58.20077592 59.15207501 56.94828691 57.68714563 55.6953125 56.22265625 C54 54 54 54 54 52 C53.443125 51.773125 52.88625 51.54625 52.3125 51.3125 C48.03688123 48.88579746 44.86083181 45.56749627 43 41 C42.34 41 41.68 41 41 41 C41 40.34 41 39.68 41 39 C40.40541992 38.72760498 39.81083984 38.45520996 39.19824219 38.17456055 C37.05559444 37.02970512 35.57993363 35.87355302 33.828125 34.20703125 C33.2503833 33.66280518 32.6726416 33.1185791 32.07739258 32.55786133 C31.47435303 31.98189209 30.87131348 31.40592285 30.25 30.8125 C28.98906652 29.62416621 27.72735409 28.43665837 26.46484375 27.25 C25.86269043 26.6828125 25.26053711 26.115625 24.64013672 25.53125 C22.73234142 23.75011095 20.78656445 22.01979898 18.8125 20.3125 C15.59855951 17.52893599 12.41473369 14.71450414 9.25 11.875 C8.34765625 11.06804688 7.4453125 10.26109375 6.515625 9.4296875 C4.08450023 7.08161358 1.97535783 4.74150129 0 2 C0 1.34 0 0.68 0 0 Z " fill="#A71808" transform="translate(428,0)"/>
<path d="M0 0 C2.27944728 1.75978054 4.25945732 3.61621812 6.26171875 5.68359375 C6.8959375 6.2353125 7.53015625 6.78703125 8.18359375 7.35546875 C13.86744579 12.4563616 17.8363129 18.39530718 18.6015625 26.109375 C18.6459306 30.54125497 18.66945261 34.46039218 17.26171875 38.68359375 C16.60171875 38.68359375 15.94171875 38.68359375 15.26171875 38.68359375 C15.05546875 39.40546875 14.84921875 40.12734375 14.63671875 40.87109375 C12.48362151 45.27515628 9.08733369 47.70057032 4.82421875 49.99609375 C-0.00447479 51.29159689 -3.42741236 51.35187985 -7.92578125 49.05859375 C-10.93739127 46.5154564 -12.80346911 44.10672291 -14.73828125 40.68359375 C-14.73828125 40.02359375 -14.73828125 39.36359375 -14.73828125 38.68359375 C-15.48078125 39.34359375 -16.22328125 40.00359375 -16.98828125 40.68359375 C-21.78126781 43.83717398 -27.25316357 43.77768014 -32.73828125 42.68359375 C-36.79127378 40.24059825 -39.0119735 37.07305206 -41.17578125 32.93359375 C-42.41019424 25.8014298 -42.87260004 18.9601697 -39.12890625 12.52734375 C-30.74677195 1.41395221 -13.48916563 -6.48480573 0 0 Z " fill="#350422" transform="translate(242.73828125,311.31640625)"/>
<path d="M0 0 C0.33 0 0.66 0 1 0 C1.24644904 2.96347362 1.42249849 5.90607901 1.5625 8.875 C1.63791016 9.69742187 1.71332031 10.51984375 1.79101562 11.3671875 C1.983935 16.85467188 0.88408365 19.74241617 -2.7734375 23.86328125 C-4.49553597 25.59572419 -6.23948945 27.30660569 -8 29 C-8.96819887 29.98148849 -9.93269998 30.96663606 -10.89379883 31.95507812 C-13.44193302 34.57012986 -16.01627157 37.15707573 -18.60327148 39.73364258 C-20.19958841 41.32454743 -21.79041915 42.92080052 -23.38085938 44.51757812 C-24.41374167 45.5498003 -25.44693376 46.5817126 -26.48046875 47.61328125 C-27.39723389 48.52891846 -28.31399902 49.44455566 -29.25854492 50.38793945 C-31.18565015 52.22408683 -33.08017622 53.92029115 -35.1340332 55.59643555 C-37.50554367 57.58532051 -39.41955754 59.46892965 -41.375 61.84375 C-45.56826735 66.75586318 -50.26909098 71.01497742 -55.0390625 75.35546875 C-60.50395096 80.38780813 -65.34756409 85.75897593 -70.05078125 91.50585938 C-84.68604576 109.1435627 -84.68604576 109.1435627 -94.421875 110.296875 C-100.013629 110.4575183 -105.4948016 109.97397359 -111 109 C-107.92246798 105.83531663 -104.81027931 102.99920005 -101.3125 100.3125 C-95.82816512 95.89683119 -90.93514778 91.01643738 -86 86 C-80.41219036 80.3252855 -74.8583856 74.98602811 -68.5859375 70.07421875 C-57.24075084 60.97407658 -46.5689349 50.52186149 -37.6875 39 C-35.46576048 36.28698474 -32.89232662 34.27040857 -30.125 32.125 C-26.23214099 29.0876513 -22.99743253 25.98512538 -19.84375 22.19921875 C-17.63427976 19.56377014 -15.32271959 17.03610196 -13 14.5 C-9.3765856 10.52807399 -5.80002156 6.5223778 -2.27734375 2.4609375 C-1.54167701 1.61953273 -0.79030613 0.79030613 0 0 Z " fill="#8B0C0A" transform="translate(511,403)"/>
<path d="M0 0 C0 0.66 0 1.32 0 2 C0.763125 2.0825 1.52625 2.165 2.3125 2.25 C5 3 5 3 6.8125 4.625 C8.48224066 7.96448132 8.38241129 10.30335753 8 14 C6.70068057 17.55603214 5.63039155 19.48887171 2.6875 21.875 C-2.06758335 23.86550001 -5.43863301 23.22959063 -10.125 21.5 C-20.42421151 18.2130176 -34.15379268 18.41088466 -44.22265625 22.34375 C-46 23 -46 23 -49 23 C-49.33 23.99 -49.66 24.98 -50 26 C-57.61406844 26.76140684 -57.61406844 26.76140684 -60.8984375 24.95703125 C-63.03929768 23.17646218 -64.74757112 21.50485776 -66 19 C-66.40156418 13.7796656 -65.90046338 10.40070306 -63 6 C-59.03509193 3.1814834 -54.73592403 1.77120503 -50.125 0.375 C-49.44308594 0.1584375 -48.76117188 -0.058125 -48.05859375 -0.28125 C-32.72439819 -5.01294463 -15.34090758 -4.33155038 0 0 Z " fill="#360622" transform="translate(355,223)"/>
<path d="M0 0 C18.3298652 7.60494407 36.50531146 17.53525041 46.48828125 35.578125 C47.9087005 39.108372 47.67592554 41.3452943 46.421875 44.8984375 C44.26934144 48.23857578 42.31859844 50.81601432 38.421875 51.8984375 C33.81123833 51.82525279 31.50051702 51.74030444 27.859375 48.8984375 C26.5122091 47.24038716 25.17955264 45.56885397 23.9140625 43.84765625 C15.58511652 32.63263364 5.36486255 25.92077603 -7.953125 21.9609375 C-11.80872344 20.71703621 -13.40496309 20.07159941 -16.328125 17.1484375 C-17.84781254 13.1972499 -18.56349629 10.0634943 -17.578125 5.8984375 C-13.27422747 -1.45471585 -7.94898031 -2.44717516 0 0 Z " fill="#360523" transform="translate(190.578125,176.1015625)"/>
<path d="M0 0 C16.17 0 32.34 0 49 0 C43.3867121 8.98126065 43.3867121 8.98126065 38.75 11.625 C37.78320312 12.2025 36.81640625 12.78 35.8203125 13.375 C34.88960937 13.91125 33.95890625 14.4475 33 15 C19.85910502 22.63899777 10.70537504 32.72436693 4.5859375 46.56640625 C3 50 3 50 0 54 C0 36.18 0 18.36 0 0 Z " fill="#911009" transform="translate(0,0)"/>
<path d="M0 0 C4.15285779 -0.62292867 7.86606812 -0.82984101 12 0 C14.57802747 2.22289103 16.24737295 4.55866375 18.16796875 7.36328125 C20.31018293 10.44642533 22.67585866 12.51375542 25.54296875 14.89453125 C28.92842649 17.79558327 32.13706004 20.87378096 35.375 23.9375 C40.50310823 28.77837289 45.6887537 33.32004342 51.33984375 37.546875 C52.16162109 38.26617187 52.16162109 38.26617187 53 39 C53 39.66 53 40.32 53 41 C53.66 41 54.32 41 55 41 C58.35554573 44.09063422 61.15743072 47.4467884 64 51 C65.13501953 52.12341797 65.13501953 52.12341797 66.29296875 53.26953125 C69.12159481 56.12264758 71.73552687 59.11003655 74.3125 62.1875 C74.78961426 62.75484863 75.26672852 63.32219727 75.75830078 63.90673828 C81.76716994 71.07588522 87.70370385 78.2825399 93 86 C93.53625 86.71929687 94.0725 87.43859375 94.625 88.1796875 C96.44179902 91.90619003 96.32847629 95.26756498 96.1875 99.3125 C96.16719727 100.42334961 96.16719727 100.42334961 96.14648438 101.55664062 C96.11135979 103.37141075 96.05755972 105.18580288 96 107 C91.19395338 101.07675833 86.54111165 94.95630181 82.875 88.25 C81.42491053 85.73651158 80.11431101 83.84864265 78.25 81.6875 C76 79 76 79 76 77 C75.34 77 74.68 77 74 77 C72.51953125 75.34765625 72.51953125 75.34765625 70.8125 73.0625 C70.19246094 72.24394531 69.57242188 71.42539063 68.93359375 70.58203125 C68.29550781 69.72996094 67.65742188 68.87789063 67 68 C65.79638924 66.41307372 64.58822812 64.82958584 63.375 63.25 C62.84648437 62.55390625 62.31796875 61.8578125 61.7734375 61.140625 C59.66079522 58.5905634 57.36224937 56.32140356 55 54 C53.92006618 52.90021075 52.84205317 51.79853317 51.765625 50.6953125 C43.33255125 42.08636604 43.33255125 42.08636604 33.96484375 34.52734375 C32 33 32 33 29.609375 30.6015625 C26.12881121 27.13141955 22.29539858 24.20493232 18.42578125 21.18359375 C16.17478154 19.15733153 15.07978808 17.78471662 14 15 C13.34 15 12.68 15 12 15 C10.45908595 13.30411736 8.99076703 11.54178328 7.5625 9.75 C6.78003906 8.77546875 5.99757813 7.8009375 5.19140625 6.796875 C3.4316383 4.55089665 1.69783902 2.29290157 0 0 Z " fill="#DF3D04" transform="translate(416,0)"/>
<path d="M0 0 C0.33 0 0.66 0 1 0 C2.05210082 9.96198119 2.05210082 9.96198119 -0.21471596 14.35301971 C-2.02009345 16.56727416 -3.92830909 18.5398927 -5.9855957 20.52246094 C-7.10025963 21.66625717 -7.10025963 21.66625717 -8.23744202 22.8331604 C-10.68783157 25.33104497 -13.17910618 27.78281897 -15.67578125 30.234375 C-17.40003897 31.96418086 -19.12243972 33.69583956 -20.84306335 35.42926025 C-24.45000662 39.04935977 -28.07742521 42.64719764 -31.72094727 46.23046875 C-36.38311725 50.8186425 -40.99189481 55.45645719 -45.58674335 60.11193466 C-49.13302713 63.69412992 -52.70535719 67.24939921 -56.28615379 70.79706573 C-57.99606034 72.49714051 -59.69802082 74.20524705 -61.39168739 75.92150116 C-63.76576791 78.31889082 -66.17246272 80.67791748 -68.59106445 83.03027344 C-69.62577881 84.09603104 -69.62577881 84.09603104 -70.68139648 85.18331909 C-74.74443717 89.0499129 -77.33064507 90.41594465 -83.02555847 90.43560791 C-84.68637774 90.3250854 -86.34661195 90.19194745 -88 90 C-82.43312161 83.27824246 -76.2914864 77.2329006 -70.07617188 71.11523438 C-65.73564234 66.81627416 -61.59814126 62.44594731 -57.61987305 57.8112793 C-55.13926735 55.03756209 -52.40697434 52.59005673 -49.625 50.125 C-44.85127349 45.8169361 -40.4543181 41.36561705 -36.29296875 36.44921875 C-34.42603788 34.45506943 -32.5807152 32.74063947 -30.51171875 30.97265625 C-25.17149862 26.36953168 -20.22464202 21.3746065 -15.25244141 16.3828125 C-13.61084038 14.73579365 -11.96388532 13.09426198 -10.31640625 11.453125 C-9.26530375 10.40136262 -8.21451099 9.34929058 -7.1640625 8.296875 C-6.6745108 7.80934753 -6.18495911 7.32182007 -5.68057251 6.81951904 C-3.50643412 4.63030288 -1.72009992 2.58014988 0 0 Z " fill="#DC3C03" transform="translate(511,422)"/>
<path d="M0 0 C0.33 0 0.66 0 1 0 C1 13.53 1 27.06 1 41 C-12.53 41 -26.06 41 -40 41 C-37.525 38.525 -37.525 38.525 -35 36 C-32.89820714 33.61796809 -30.83136212 31.209608 -28.76953125 28.79296875 C-28.18558594 28.20128906 -27.60164063 27.60960937 -27 27 C-26.34 27 -25.68 27 -25 27 C-25 26.34 -25 25.68 -25 25 C-23.42578125 23.44921875 -23.42578125 23.44921875 -21.3125 21.6875 C-18.03336081 18.9394455 -15.00493914 16.04629151 -12 13 C-11.14019531 12.15179688 -10.28039062 11.30359375 -9.39453125 10.4296875 C-8.54246094 9.58664062 -7.69039063 8.74359375 -6.8125 7.875 C-5.95269531 7.02679688 -5.09289062 6.17859375 -4.20703125 5.3046875 C-1.87938579 3.00850005 -1.87938579 3.00850005 0 0 Z " fill="#8D1308" transform="translate(511,471)"/>
<path d="M0 0 C0.4375 2.5 0.4375 2.5 0 6 C-1.57617456 8.17359556 -3.30194195 10.05167634 -5.17578125 11.97265625 C-7.06163018 13.93727412 -7.06163018 13.93727412 -8.35546875 16.26953125 C-10.59191127 19.98276954 -13.277962 23.25861484 -16 26.625 C-16.53367187 27.29273438 -17.06734375 27.96046875 -17.6171875 28.6484375 C-19.97156286 31.57676506 -22.32445953 34.3591357 -25 37 C-26.77528232 39.07385253 -28.53133543 41.16252005 -30.28125 43.2578125 C-32 45 -32 45 -35 46 C-35.33 46.99 -35.66 47.98 -36 49 C-37.31647119 49.69937532 -38.65022151 50.36729133 -40 51 C-40.495 51.99 -40.495 51.99 -41 53 C-41.66 53 -42.32 53 -43 53 C-43.2475 53.78375 -43.495 54.5675 -43.75 55.375 C-45.19494285 58.40937999 -46.05565819 58.67029725 -49 60 C-49.33 60.99 -49.66 61.98 -50 63 C-52.5625 64.1875 -52.5625 64.1875 -55 65 C-55 65.66 -55 66.32 -55 67 C-56.42578125 68.2890625 -56.42578125 68.2890625 -58.3125 69.625 C-58.92738281 70.07101562 -59.54226563 70.51703125 -60.17578125 70.9765625 C-62 72 -62 72 -65 72 C-65 72.66 -65 73.32 -65 74 C-67.18771713 76.32444946 -68.87166826 77.8623477 -72.11328125 78.2578125 C-74.07738938 78.25083521 -76.0403779 78.13285574 -78 78 C-73.80691052 72.99837386 -69.4380859 68.29409329 -64.81713867 63.68774414 C-64.1253653 62.99421844 -63.43359192 62.30069275 -62.72085571 61.58615112 C-60.45571924 59.31664723 -58.18698544 57.05078026 -55.91796875 54.78515625 C-54.33695604 53.2034695 -52.75609177 51.62163436 -51.17536926 50.03965759 C-47.87447599 46.73729468 -44.57179201 43.43673604 -41.26782227 40.13745117 C-37.02275477 35.89810865 -32.78222985 31.654255 -28.54300976 27.4090662 C-25.28588355 24.14833846 -22.02639428 20.88998132 -18.76616859 17.63235283 C-17.20044765 16.06730083 -15.63547434 14.50150052 -14.07124901 12.93495369 C-11.89519776 10.7563796 -9.715996 8.58100824 -7.53588867 6.40649414 C-6.88500778 5.75358902 -6.23412689 5.1006839 -5.56352234 4.42799377 C-1.11426788 0 -1.11426788 0 0 0 Z " fill="#BB2306" transform="translate(512,434)"/>
<path d="M0 0 C-0.42258786 4.93019167 -2.50582879 6.66030542 -6 10 C-7.89775979 11.90245384 -9.7952333 13.80518984 -11.69238281 15.70825195 C-17.21388733 21.24602048 -22.73787624 26.78130365 -28.26332474 32.31513691 C-31.6013469 35.65840558 -34.93841582 39.00261499 -38.2734375 42.34887695 C-41.50599557 45.5922564 -44.74095164 48.83322572 -47.97762299 52.07250023 C-49.21134026 53.30807024 -50.44417468 54.54452241 -51.67612457 55.78185463 C-53.39018708 57.50311937 -55.10729555 59.22128695 -56.82519531 60.9387207 C-57.33738617 61.45450684 -57.84957703 61.97029297 -58.37728882 62.50170898 C-61.88594475 66 -61.88594475 66 -63 66 C-64.0632151 55.87414188 -64.0632151 55.87414188 -61.6171875 51.5625 C-58.42499661 47.91428184 -54.78638983 45.00969448 -51 42 C-49.42378107 40.2673624 -47.91917976 38.49111274 -46.4296875 36.68359375 C-44.17070974 34.02343142 -41.77052171 31.80979072 -39.078125 29.578125 C-33.30151575 24.66405887 -28.07510279 19.14198506 -22.75 13.75 C-20.60185787 11.57522801 -18.45039199 9.40382326 -16.296875 7.234375 C-15.5655838 6.49063629 -15.5655838 6.49063629 -14.81951904 5.73187256 C-10.33885321 1.21886816 -6.48977162 -2.16325721 0 0 Z " fill="#DF3C03" transform="translate(63,25)"/>
<path d="M0 0 C4.26897619 4.26897619 8.43330494 8.5987734 12.5625 13 C13.5515332 14.04800781 13.5515332 14.04800781 14.56054688 15.1171875 C17.26111613 17.99417585 19.87986346 20.8491775 22.33984375 23.9375 C23.83899311 26.09297014 23.83899311 26.09297014 26 27 C25.67 27.99 25.34 28.98 25 30 C16.75 30 8.5 30 0 30 C0 20.1 0 10.2 0 0 Z " fill="#811307" transform="translate(0,482)"/>
<path d="M0 0 C7.26 0 14.52 0 22 0 C22 8.25 22 16.5 22 25 C16.36464088 20.49171271 16.36464088 20.49171271 13.8125 17.5 C13.22984375 16.81808594 12.6471875 16.13617187 12.046875 15.43359375 C11.03367187 14.22896484 11.03367187 14.22896484 10 13 C9.57396484 12.49742676 9.14792969 11.99485352 8.70898438 11.47705078 C7.32322021 9.84186867 5.94200445 8.20296539 4.5625 6.5625 C3.88828003 5.76392578 3.88828003 5.76392578 3.20043945 4.94921875 C0 1.11638686 0 1.11638686 0 0 Z " fill="#DE3F03" transform="translate(490,0)"/>
<path d="M0 0 C1.68319336 0.04060547 1.68319336 0.04060547 3.40039062 0.08203125 C6.16472459 0.15260999 8.92512415 0.25115512 11.6875 0.375 C5.85878141 6.25469863 0.19098131 9.89018161 -7.3125 13.375 C-9.56495881 10.68658141 -11.19463958 8.72858125 -12.3125 5.375 C-13.01375 6.1175 -13.715 6.86 -14.4375 7.625 C-17.28968006 10.35317223 -19.9888063 12.28802954 -23.3125 14.375 C-23.6425 13.715 -23.9725 13.055 -24.3125 12.375 C-23.86519531 12.01148438 -23.41789062 11.64796875 -22.95703125 11.2734375 C-22.35246094 10.77070313 -21.74789062 10.26796875 -21.125 9.75 C-20.53332031 9.26273438 -19.94164062 8.77546875 -19.33203125 8.2734375 C-17.10029902 6.34035595 -17.10029902 6.34035595 -15.34375 3.1875 C-11.51865742 -1.5006642 -5.5137973 -0.25135955 0 0 Z " fill="#830B09" transform="translate(78.3125,-0.375)"/>
<path d="M0 0 C3.36202939 1.42609159 5.23675579 3.14348515 7.5625 5.9375 C10.01177688 8.87687117 10.01177688 8.87687117 12.77734375 11.50390625 C13.18082031 11.99761719 13.58429687 12.49132812 14 13 C13.6875 15.1875 13.6875 15.1875 13 17 C3.23625255 17.57433809 3.23625255 17.57433809 -1 14 C-1.33 13.01 -1.66 12.02 -2 11 C-1.34 11 -0.68 11 0 11 C-0.556875 10.2265625 -0.556875 10.2265625 -1.125 9.4375 C-2.40331649 5.87647549 -1.20550735 3.4825768 0 0 Z " fill="#C82C06" transform="translate(31,458)"/>
<path d="M0 0 C0.66 0.33 1.32 0.66 2 1 C1.23816406 1.73863281 0.47632813 2.47726563 -0.30859375 3.23828125 C-7.03026571 9.81782286 -13.17427494 16.60034547 -19 24 C-19.67675781 24.82113281 -20.35351562 25.64226562 -21.05078125 26.48828125 C-29.87512748 37.2317086 -36.95130783 49.05638271 -44 61 C-45 58 -45 58 -43.875 55.3125 C-40.01780046 48.49811415 -35.74372294 42.14815936 -31.08984375 35.84765625 C-29.7468802 34.01771152 -28.42458589 32.17231666 -27.12890625 30.30859375 C-20.37790533 20.66631177 -12.34174981 12.27033072 -4 4 C-3.236875 3.236875 -2.47375 2.47375 -1.6875 1.6875 C-1.130625 1.130625 -0.57375 0.57375 0 0 Z " fill="#E13503" transform="translate(96,90)"/>
<path d="M0 0 C1.51400391 0.01740234 1.51400391 0.01740234 3.05859375 0.03515625 C4.07050781 0.04417969 5.08242188 0.05320313 6.125 0.0625 C7.29869141 0.07990234 7.29869141 0.07990234 8.49609375 0.09765625 C7.83609375 1.41765625 7.17609375 2.73765625 6.49609375 4.09765625 C5.83609375 4.09765625 5.17609375 4.09765625 4.49609375 4.09765625 C4.28984375 4.65453125 4.08359375 5.21140625 3.87109375 5.78515625 C1.94608601 9.02266927 -0.54241527 10.77996766 -3.50390625 13.09765625 C-4.82390625 12.43765625 -6.14390625 11.77765625 -7.50390625 11.09765625 C-6.83902626 6.4434963 -5.38533695 0.21003654 0 0 Z " fill="#CD3404" transform="translate(57.50390625,-0.09765625)"/>
<path d="M0 0 C0.33 0 0.66 0 1 0 C1.58653027 4.54560959 -0.03561637 7.65990655 -1.91796875 11.6640625 C-3.48048152 15.03728502 -4.76618738 18.49515865 -6 22 C-6.48919922 23.30904297 -6.48919922 23.30904297 -6.98828125 24.64453125 C-8.26814804 28.88934041 -8.91881788 33.12023701 -9.5625 37.5 C-9.8136457 39.15627372 -10.06494431 40.81252426 -10.31640625 42.46875 C-10.43258301 43.24476563 -10.54875977 44.02078125 -10.66845703 44.8203125 C-11.08392614 47.55176187 -11.53575869 50.276451 -12 53 C-12.33 53 -12.66 53 -13 53 C-13.99939172 45.77466796 -13.96290189 40.04335384 -12 33 C-11.34 33 -10.68 33 -10 33 C-9.96261719 32.39414063 -9.92523438 31.78828125 -9.88671875 31.1640625 C-9.16416147 21.95499917 -6.76117185 6.76117185 0 0 Z " fill="#DD3504" transform="translate(43,165)"/>
<path d="M0 0 C0 0.33 0 0.66 0 1 C-1.95836792 1.029729 -1.95836792 1.029729 -3.95629883 1.06005859 C-8.84498932 1.13668749 -13.73340415 1.22531219 -18.62182617 1.31738281 C-20.72919229 1.35543763 -22.83661819 1.39032944 -24.9440918 1.421875 C-27.99028756 1.46804041 -31.03608003 1.52594473 -34.08203125 1.5859375 C-35.47335014 1.60326431 -35.47335014 1.60326431 -36.89277649 1.62094116 C-44.41779599 1.78705527 -51.83180393 2.61060131 -59 5 C-61.1875 4.0625 -61.1875 4.0625 -63 3 C-42.04887586 -1.15705682 -21.26591144 -2.55647558 0 0 Z " fill="#CF9420" transform="translate(275,69)"/>
<path d="M0 0 C1.3231795 4.32681491 0.37951818 7.83489306 -0.6875 12.125 C-0.86958008 12.87966553 -1.05166016 13.63433105 -1.23925781 14.41186523 C-2.67380845 20.15560421 -4.51390135 25.6178609 -7 31 C-7.33 29.68 -7.66 28.36 -8 27 C-8.99 27.33 -9.98 27.66 -11 28 C-9.32236975 22.61577307 -7.1522998 17.49093173 -4.9375 12.3125 C-4.21644166 10.62152248 -3.49634766 8.93013334 -2.77734375 7.23828125 C-2.46015381 6.49618408 -2.14296387 5.75408691 -1.81616211 4.98950195 C-1.14440832 3.35201417 -0.55969808 1.67909424 0 0 Z " fill="#E75C30" transform="translate(468,321)"/>
<path d="M0 0 C3.63 0 7.26 0 11 0 C11 4.29 11 8.58 11 13 C9.68 12.01 8.36 11.02 7 10 C7 9.34 7 8.68 7 8 C6.01 7.67 5.02 7.34 4 7 C2.41034429 4.78298853 1.27672514 2.42137527 0 0 Z " fill="#BD2307" transform="translate(501,0)"/>
<path d="M0 0 C2 0 2 0 3.65625 1.64453125 C4.56890625 2.71767578 4.56890625 2.71767578 5.5 3.8125 C6.41265625 4.87404297 6.41265625 4.87404297 7.34375 5.95703125 C9 8 9 8 11 11 C7.37 11 3.74 11 0 11 C0 7.37 0 3.74 0 0 Z " fill="#E03E03" transform="translate(33,460)"/>
<path d="M0 0 C-0.48766846 0.29132812 -0.97533691 0.58265625 -1.4777832 0.8828125 C-3.75925084 2.24991971 -6.03661341 3.62362085 -8.3125 5 C-9.13177979 5.49532227 -9.95105957 5.99064453 -10.79516602 6.50097656 C-16.4452937 9.95417252 -21.74726478 13.61128405 -26.93359375 17.734375 C-27.61550781 18.15203125 -28.29742187 18.5696875 -29 19 C-29.99 18.67 -30.98 18.34 -32 18 C-25.91808044 13.24250992 -19.55771255 9.06905156 -13 5 C-12.06929687 4.401875 -11.13859375 3.80375 -10.1796875 3.1875 C-9.29539063 2.630625 -8.41109375 2.07375 -7.5 1.5 C-6.7059375 0.9946875 -5.911875 0.489375 -5.09375 -0.03125 C-3 -1 -3 -1 0 0 Z " fill="#E23603" transform="translate(144,58)"/>
<path d="M0 0 C0 3.3 0 6.6 0 10 C-3.3 10 -6.6 10 -10 10 C-1.50943396 0 -1.50943396 0 0 0 Z " fill="#D33F04" transform="translate(512,502)"/>
<path d="M0 0 C3.51855159 1.40742064 4.38612834 2.66466523 6 6 C6.99 6.33 7.98 6.66 9 7 C10.66110165 9.16029281 12.18943143 11.2950884 13.6875 13.5625 C14.10322266 14.17802734 14.51894531 14.79355469 14.94726562 15.42773438 C15.97193162 16.94706671 16.98690678 18.47292657 18 20 C17.67 20.66 17.34 21.32 17 22 C14.91219764 19.46197578 12.8305926 16.91893656 10.75 14.375 C10.16347656 13.66214844 9.57695312 12.94929688 8.97265625 12.21484375 C5.74730207 8.26469087 2.74094839 4.30138931 0 0 Z " fill="#DF3503" transform="translate(420,104)"/>
<path d="M0 0 C0.99 0 1.98 0 3 0 C2.22602467 6.70778622 1.14231412 13.34574301 0 20 C-0.33 20 -0.66 20 -1 20 C-1.99939172 12.77466796 -1.96290189 7.04335384 0 0 Z " fill="#DC5129" transform="translate(31,198)"/>
<path d="M0 0 C4.88461676 2.6516491 9.19320406 5.57961219 11 11 C12.93330603 12.09166275 12.93330603 12.09166275 15 13 C15.66 13.66 16.32 14.32 17 15 C16.67 15.99 16.34 16.98 16 18 C13.32529045 15.38308836 10.66165519 12.75518292 8 10.125 C7.236875 9.37863281 6.47375 8.63226563 5.6875 7.86328125 C4.965625 7.14785156 4.24375 6.43242188 3.5 5.6953125 C2.8296875 5.03547363 2.159375 4.37563477 1.46875 3.69580078 C0 2 0 2 0 0 Z " fill="#E03503" transform="translate(403,86)"/>
<path d="M0 0 C2.66673742 -0.02727345 5.33318869 -0.04696948 8 -0.0625 C8.74378906 -0.07087891 9.48757813 -0.07925781 10.25390625 -0.08789062 C15.26148844 -0.10966272 20.04279032 0.28458451 25 1 C24.67 1.66 24.34 2.32 24 3 C15.83759432 3.33853295 8.04927976 2.29901921 0 1 C0 0.67 0 0.34 0 0 Z " fill="#E43602" transform="translate(260,29)"/>
<path d="M0 0 C0.99 0.33 1.98 0.66 3 1 C-1.38130557 5.58146674 -5.54843278 9.72905967 -11 13 C-9.56951306 9.81716656 -7.80982757 7.42084342 -5.5 4.8125 C-4.58734375 3.77029297 -4.58734375 3.77029297 -3.65625 2.70703125 C-2 1 -2 1 0 0 Z " fill="#471722" transform="translate(294,266)"/>
<path d="M0 0 C4.97209562 1.76429199 9.43438061 4.3939166 14 7 C14 7.66 14 8.32 14 9 C10.61108678 8.31113213 7.81988387 7.01283514 4.75 5.4375 C3.85796875 4.98246094 2.9659375 4.52742188 2.046875 4.05859375 C1.37140625 3.70925781 0.6959375 3.35992187 0 3 C0 2.01 0 1.02 0 0 Z " fill="#CF3006" transform="translate(355,53)"/>
<path d="M0 0 C-2.57967797 0.86689178 -5.16276127 1.71873789 -7.75 2.5625 C-8.84441406 2.9327832 -8.84441406 2.9327832 -9.9609375 3.31054688 C-10.66992188 3.53935547 -11.37890625 3.76816406 -12.109375 4.00390625 C-12.75874023 4.21861572 -13.40810547 4.4333252 -14.07714844 4.65454102 C-16.33444538 5.06008636 -17.83473482 4.69296911 -20 4 C-17.27129596 1.27129596 -14.8791803 1.11250724 -11.125 0.3125 C-9.27261719 -0.09548828 -9.27261719 -0.09548828 -7.3828125 -0.51171875 C-4.39529663 -0.94294217 -2.77229336 -1.03786862 0 0 Z " fill="#E13603" transform="translate(209,34)"/>
<path d="M0 0 C0 0.33 0 0.66 0 1 C-1.26457031 1.20496094 -2.52914062 1.40992187 -3.83203125 1.62109375 C-5.49220863 1.89310021 -7.15236373 2.16524272 -8.8125 2.4375 C-10.06256836 2.63956055 -10.06256836 2.63956055 -11.33789062 2.84570312 C-12.54155273 3.04389648 -12.54155273 3.04389648 -13.76953125 3.24609375 C-14.87711792 3.42676392 -14.87711792 3.42676392 -16.00708008 3.61108398 C-18.19623596 3.99393076 -18.19623596 3.99393076 -21 5 C-23.1875 4.0625 -23.1875 4.0625 -25 3 C-22.3347536 2.49118023 -19.66821581 1.99279859 -17 1.5 C-15.88431641 1.28537109 -15.88431641 1.28537109 -14.74609375 1.06640625 C-9.74779985 0.15367432 -5.08079684 -0.13856719 0 0 Z " fill="#BD8320" transform="translate(237,69)"/>
<path d="M0 0 C0.66 0.33 1.32 0.66 2 1 C-1.63 4.3 -5.26 7.6 -9 11 C-9.99 10.67 -10.98 10.34 -12 10 C-10.56458334 8.70601853 -9.12658648 7.41489889 -7.6875 6.125 C-6.88699219 5.40570313 -6.08648437 4.68640625 -5.26171875 3.9453125 C-3 2 -3 2 0 0 Z " fill="#E03503" transform="translate(110,78)"/>
<path d="M0 0 C3.78091617 1.34313185 6.65651916 3.02964684 9.8125 5.5 C10.60269531 6.1084375 11.39289063 6.716875 12.20703125 7.34375 C12.79871094 7.8903125 13.39039063 8.436875 14 9 C14 9.66 14 10.32 14 11 C10.50004453 9.43810398 7.72827143 7.33666309 4.75 4.9375 C3.85796875 4.22464844 2.9659375 3.51179688 2.046875 2.77734375 C1.37140625 2.19082031 0.6959375 1.60429688 0 1 C0 0.67 0 0.34 0 0 Z " fill="#DD3403" transform="translate(387,74)"/>
<path d="M0 0 C-2.87078299 1.91385532 -5.33411656 2.96432952 -8.5625 4.125 C-9.53316406 4.47820313 -10.50382813 4.83140625 -11.50390625 5.1953125 C-14 6 -14 6 -16 6 C-15.67 5.01 -15.34 4.02 -15 3 C-12.890625 2.05078125 -12.890625 2.05078125 -10.25 1.3125 C-9.38890625 1.06113281 -8.5278125 0.80976562 -7.640625 0.55078125 C-5.01182147 0.00246572 -2.67647662 -0.10108994 0 0 Z " fill="#E23503" transform="translate(187,39)"/>
<path d="M0 0 C1 2 1 2 0.5 4.125 C-1.68427129 8.31151997 -4.8022226 11.5542666 -8 15 C-8.66 14.67 -9.32 14.34 -10 14 C-9.52949219 13.40832031 -9.05898438 12.81664062 -8.57421875 12.20703125 C-3.9441876 6.33987937 -3.9441876 6.33987937 0 0 Z " fill="#CF9520" transform="translate(376,335)"/>
<path d="M0 0 C0.66 0 1.32 0 2 0 C2 4.29 2 8.58 2 13 C0.1781602 9.3563204 -0.57678304 6.97823938 -1 3 C-0.67 2.01 -0.34 1.02 0 0 Z " fill="#F56735" transform="translate(28,212)"/>
<path d="M0 0 C0.79921875 0.00902344 1.5984375 0.01804687 2.421875 0.02734375 C3.02515625 0.03894531 3.6284375 0.05054688 4.25 0.0625 C3.610625 0.371875 2.97125 0.68125 2.3125 1 C0.31389179 1.8970163 0.31389179 1.8970163 -0.75 3.0625 C-2.26928038 3.13429964 -3.79167482 3.14642007 -5.3125 3.125 C-6.13878906 3.11597656 -6.96507812 3.10695313 -7.81640625 3.09765625 C-8.45449219 3.08605469 -9.09257812 3.07445312 -9.75 3.0625 C-8.75 1.0625 -8.75 1.0625 -6.984375 0.44140625 C-4.60849677 0.03850382 -2.40820483 -0.03541478 0 0 Z " fill="#663421" transform="translate(229.75,309.9375)"/>
<path d="M0 0 C-3.67346771 2.44897847 -5.66356399 2.31537716 -10 2 C-10.66 1.34 -11.32 0.68 -12 0 C-7.74433453 -1.16063604 -4.3164922 -0.76173392 0 0 Z " fill="#542222" transform="translate(248,360)"/>
<path d="M0 0 C1.45606519 4.52092968 0.27032841 7.51648796 -1 12 C-1.99 12 -2.98 12 -4 12 C-2.66666667 8 -1.33333333 4 0 0 Z " fill="#C14B31" transform="translate(468,321)"/>
<path d="M0 0 C1.6266848 0.28211877 3.25132896 0.57602375 4.875 0.875 C5.77992188 1.03742187 6.68484375 1.19984375 7.6171875 1.3671875 C10 2 10 2 12 4 C8.37 3.67 4.74 3.34 1 3 C0.67 2.01 0.34 1.02 0 0 Z " fill="#D83305" transform="translate(319,39)"/>
<path d="M0 0 C0 3.48123131 -0.41151304 3.86520636 -2.75 6.25 C-3.26046875 6.79140625 -3.7709375 7.3328125 -4.296875 7.890625 C-6 9 -6 9 -8.203125 8.671875 C-8.79609375 8.45015625 -9.3890625 8.2284375 -10 8 C-9.44570313 7.59007812 -8.89140625 7.18015625 -8.3203125 6.7578125 C-7.59585937 6.21898437 -6.87140625 5.68015625 -6.125 5.125 C-5.04605469 4.32449219 -5.04605469 4.32449219 -3.9453125 3.5078125 C-1.91747368 2.00126838 -1.91747368 2.00126838 0 0 Z " fill="#DCA120" transform="translate(365,350)"/>
<path d="M0 0 C1.98 0 3.96 0 6 0 C4.35830472 2.02054804 2.69088222 4.02043058 1 6 C0.67 6 0.34 6 0 6 C0 4.02 0 2.04 0 0 Z " fill="#DD4003" transform="translate(0,0)"/>
<path d="M0 0 C0.33 0 0.66 0 1 0 C1 3.3 1 6.6 1 10 C-0.98 10.99 -0.98 10.99 -3 12 C-2.01 8.04 -1.02 4.08 0 0 Z " fill="#D19720" transform="translate(363,231)"/>
<path d="M0 0 C0.99 0.33 1.98 0.66 3 1 C3.94921875 3.06640625 3.94921875 3.06640625 4.6875 5.5625 C4.93886719 6.38878906 5.19023437 7.21507812 5.44921875 8.06640625 C5.63097656 8.70449219 5.81273437 9.34257812 6 10 C5.34 10 4.68 10 4 10 C3.32845067 8.71086513 2.66291141 7.41859796 2 6.125 C1.62875 5.40570313 1.2575 4.68640625 0.875 3.9453125 C0 2 0 2 0 0 Z " fill="#E53602" transform="translate(456,157)"/>
<path d="M0 0 C0.75 1.625 0.75 1.625 1 4 C-0.9375 7.25 -0.9375 7.25 -3 10 C-3.33 9.34 -3.66 8.68 -4 8 C-1.48571429 1.48571429 -1.48571429 1.48571429 0 0 Z " fill="#E33603" transform="translate(49,152)"/>
<path d="M0 0 C3.37462715 0.54723683 5.08235 1.0549 8 3 C8 3.66 8 4.32 8 5 C5.07120629 4.37240135 2.63904371 3.41377341 0 2 C0 1.34 0 0.68 0 0 Z " fill="#D73205" transform="translate(371,63)"/>
<path d="M0 0 C0.625 1.8125 0.625 1.8125 1 4 C0.01 5.485 0.01 5.485 -1 7 C-1.66 7 -2.32 7 -3 7 C-2.25 2.25 -2.25 2.25 0 0 Z " fill="#ED6C41" transform="translate(463,337)"/>
</svg>
